<svg width="2700" height="750" xmlns="http://www.w3.org/2000/svg">
 <defs>
  <linearGradient y2="-0.000001" x2="0.500001" y1="0.999999" x1="0.500001" id="SVGID_1_">
   <stop stop-color="#178AED" offset="0"/>
   <stop stop-color="#167EDA" offset="0.0606"/>
   <stop stop-color="#1464AE" offset="0.2145"/>
   <stop stop-color="#134E8B" offset="0.3706"/>
   <stop stop-color="#123D6F" offset="0.5269"/>
   <stop stop-color="#11315B" offset="0.6836"/>
   <stop stop-color="#10294F" offset="0.8409"/>
   <stop stop-color="#10274B" offset="1"/>
  </linearGradient>
  <linearGradient y2="0" x2="0.500001" y1="1" x1="0.500001" id="SVGID_2_">
   <stop stop-color="#178AED" offset="0"/>
   <stop stop-color="#167EDA" offset="0.0606"/>
   <stop stop-color="#1464AE" offset="0.2145"/>
   <stop stop-color="#134E8B" offset="0.3706"/>
   <stop stop-color="#123D6F" offset="0.5269"/>
   <stop stop-color="#11315B" offset="0.6836"/>
   <stop stop-color="#10294F" offset="0.8409"/>
   <stop stop-color="#10274B" offset="1"/>
  </linearGradient>
  <linearGradient y2="0" x2="0.500006" y1="1" x1="0.500006" id="SVGID_3_">
   <stop stop-color="#178AED" offset="0"/>
   <stop stop-color="#167EDA" offset="0.0606"/>
   <stop stop-color="#1464AE" offset="0.2145"/>
   <stop stop-color="#134E8B" offset="0.3706"/>
   <stop stop-color="#123D6F" offset="0.5269"/>
   <stop stop-color="#11315B" offset="0.6836"/>
   <stop stop-color="#10294F" offset="0.8409"/>
   <stop stop-color="#10274B" offset="1"/>
  </linearGradient>
 </defs>
 <g>
  <title>background</title>
  <rect fill="none" id="canvas_background" height="752" width="2702" y="-1" x="-1"/>
 </g>
 <g>
  <title>Layer 1</title>
  <g id="svg_1">
   <g id="svg_2">
    <path id="svg_3" d="m342.55143,47.523499c83.959,0 154.225,31.513 210.776,94.531c56.568,63.025 84.854,140.601 84.854,232.733c0,91.287 -28.229,168.722 -84.663,232.305c-56.432,63.59 -125.25,95.384 -206.441,95.384c-82.2,0 -151.586,-31.641 -208.146,-94.961c-56.56,-63.294 -84.84,-139.889 -84.84,-229.758c0,-59.915 12.88,-115.45 38.652,-166.605c25.757,-51.148 60.886,-91.203 105.381,-120.176c44.496,-28.974 92.639,-43.453 144.427,-43.453zm2.454,60.613c-41.018,0 -79.897,12.024 -116.634,36.066c-36.742,24.048 -65.421,56.433 -86.06,97.154c-20.63,40.733 -30.942,86.124 -30.942,136.188c0,74.106 22.836,136.683 68.5,187.735c45.669,51.059 100.712,76.582 165.136,76.582c43.016,0 82.841,-11.742 119.452,-35.22c36.617,-23.471 65.17,-55.573 85.675,-96.308c20.513,-40.728 30.766,-85.977 30.766,-135.766c0,-49.494 -10.252,-94.249 -30.766,-134.265c-20.504,-40.029 -49.377,-72.055 -86.615,-96.103c-37.238,-24.039 -76.739,-36.063 -118.512,-36.063z" fill="url(#SVGID_1_)"/>
    <path id="svg_4" d="m724.09243,686.790499l79.367,-623.582l9.001,0l225.344,511.666l223.178,-511.666l8.876,0l79.771,623.582l-54.319,0l-54.775,-445.96l-195.992,445.96l-14.16,0l-198.333,-449.358l-54.445,449.358l-53.513,0z" fill="url(#SVGID_2_)"/>
    <path id="svg_5" d="m1450.62443,63.208499l55.391,0l0,623.582l-55.391,0l0,-623.582z" fill="url(#SVGID_3_)"/>
   </g>
   <g id="svg_6">
    <g id="svg_37">
     <path id="svg_7" d="m1669.841581,127.438491c16.554,0 30.409,6.215 41.556,18.636c11.156,12.435 16.733,27.723 16.733,45.891c0,18.001 -5.563,33.276 -16.688,45.807c-11.133,12.543 -24.706,18.809 -40.707,18.809c-16.209,0 -29.893,-6.239 -41.049,-18.726c-11.153,-12.473 -16.725,-27.581 -16.725,-45.307c0,-11.813 2.537,-22.759 7.627,-32.84c5.074,-10.087 12,-17.987 20.772,-23.701s18.272,-8.569 28.481,-8.569zm0.479,11.954c-8.083,0 -15.748,2.366 -22.996,7.111c-7.242,4.746 -12.902,11.12 -16.964,19.149c-4.067,8.035 -6.103,16.98 -6.103,26.863c0,14.608 4.498,26.952 13.507,37.015c9.004,10.062 19.855,15.096 32.556,15.096c8.485,0 16.343,-2.315 23.554,-6.945c7.22,-4.63 12.849,-10.953 16.896,-18.988c4.039,-8.029 6.065,-16.956 6.065,-26.761c0,-9.773 -2.026,-18.591 -6.065,-26.485c-4.047,-7.888 -9.736,-14.197 -17.082,-18.943c-7.336,-4.746 -15.125,-7.112 -23.368,-7.112z" fill="#2D93FF"/>
     <path id="svg_8" d="m1750.049581,130.530491l10.925,0l0,111.089l42.046,0l0,11.87l-52.972,0l0,-122.959l0.001,0z" fill="#2D93FF"/>
     <path id="svg_9" d="m1818.776581,130.530491l10.928,0l0,122.959l-10.928,0l0,-122.959z" fill="#2D93FF"/>
     <path id="svg_10" d="m1849.758581,253.489491l15.659,-122.959l1.767,0l44.435,100.893l44.008,-100.893l1.753,0l15.728,122.959l-10.712,0l-10.799,-87.933l-38.652,87.933l-2.791,0l-39.108,-88.605l-10.734,88.605l-10.554,0z" fill="#2D93FF"/>
     <path id="svg_11" d="m1994.498581,130.530491l21.781,0c12.479,0 20.893,0.608 25.259,1.84c6.236,1.726 11.338,5.284 15.306,10.658c3.967,5.374 5.945,12.133 5.945,20.265c0,8.195 -1.938,14.955 -5.797,20.277c-3.871,5.322 -9.195,8.901 -15.979,10.735c-4.954,1.34 -14.211,2.014 -27.784,2.014l-7.804,0l0,57.17l-10.928,0l0,-122.959l0.001,0zm10.928,12.036l0,41.709l18.498,0.25c7.479,0 12.957,-0.763 16.423,-2.289c3.472,-1.532 6.19,-4.015 8.174,-7.426c1.979,-3.425 2.976,-7.247 2.976,-11.473c0,-4.11 -0.997,-7.882 -2.976,-11.306c-1.983,-3.418 -4.594,-5.849 -7.838,-7.298c-3.243,-1.443 -8.562,-2.168 -15.938,-2.168l-19.319,0l0,0.001z" fill="#2D93FF"/>
     <path id="svg_12" d="m2083.077581,130.530491l10.916,0l0,122.959l-10.916,0l0,-122.959z" fill="#2D93FF"/>
     <path id="svg_13" d="m2163.686581,130.530491l50.979,122.959l-11.8,0l-17.192,-40.459l-47.086,0l-17.027,40.459l-12.187,0l51.646,-122.959l2.667,0zm-1.379,26.125l-18.727,44.505l37.366,0l-18.639,-44.505z" fill="#2D93FF"/>
     <path id="svg_14" d="m2231.601581,253.489491l0,-122.959l22.659,0c16.349,0 28.212,1.48 35.588,4.431c10.608,4.182 18.886,11.422 24.865,21.733c5.963,10.312 8.95,22.599 8.95,36.867c0,12.313 -2.366,23.15 -7.104,32.507c-4.726,9.369 -10.87,16.275 -18.424,20.738c-7.553,4.451 -18.139,6.683 -31.757,6.683l-34.777,0zm10.478,-11.62l12.626,0c15.106,0 25.59,-1.058 31.433,-3.168c8.214,-3.014 14.69,-8.42 19.393,-16.243c4.709,-7.837 7.058,-17.392 7.058,-28.691c0,-11.863 -2.548,-21.996 -7.656,-30.403c-5.096,-8.407 -12.21,-14.172 -21.319,-17.289c-6.835,-2.334 -18.104,-3.508 -33.81,-3.508l-7.724,0l0,99.302l-0.001,0z" fill="#2D93FF"/>
     <path id="svg_15" d="m2389.492581,130.530491l50.968,122.959l-11.794,0l-17.198,-40.459l-47.086,0l-17.027,40.459l-12.182,0l51.641,-122.959l2.678,0zm-1.385,26.125l-18.732,44.505l37.367,0l-18.635,-44.505z" fill="#2D93FF"/>
    </g>
    <g id="svg_38">
     <path id="svg_16" d="m1612.961516,436.478491l15.645,-122.959l1.776,0l44.435,100.893l44.004,-100.893l1.747,0l15.733,122.959l-10.711,0l-10.799,-87.933l-38.643,87.933l-2.797,0l-39.103,-88.599l-10.734,88.599l-10.553,0z" fill="#2D93FF"/>
     <path id="svg_17" d="m1757.843516,313.519491l62.64,0l0,12.037l-51.706,0l0,38.534l51.261,0l0,12.03l-51.261,0l0,48.321l51.261,0l0,12.036l-62.195,0l0,-122.958z" fill="#2D93FF"/>
     <path id="svg_18" d="m1833.599516,313.519491l12.775,0l26.162,47.853l26.328,-47.853l12.606,0l-32.601,59.415l34.752,63.544l-12.775,0l-28.376,-51.886l-28.471,51.886l-12.778,0l34.915,-63.474l-32.537,-59.485z" fill="#2D93FF"/>
     <path id="svg_19" d="m1930.449516,313.519491l10.928,0l0,122.959l-10.928,0l0,-122.959z" fill="#2D93FF"/>
     <path id="svg_20" d="m2068.203516,336.336491l-8.61,7.439c-4.766,-6.965 -10.475,-12.242 -17.133,-15.84c-6.667,-3.591 -13.98,-5.387 -21.964,-5.387c-8.705,0 -16.782,2.36 -24.218,7.066c-7.428,4.701 -13.188,11.03 -17.272,18.97c-4.09,7.938 -6.125,16.872 -6.125,26.793c0,14.993 4.563,27.498 13.701,37.527c9.141,10.029 20.675,15.051 34.587,15.051c15.306,0 28.111,-6.739 38.424,-20.232l8.61,7.362c-5.447,7.798 -12.25,13.826 -20.396,18.097c-8.151,4.258 -17.249,6.388 -27.311,6.388c-19.105,0 -34.188,-7.157 -45.247,-21.483c-9.255,-12.088 -13.892,-26.69 -13.892,-43.8c0,-17.994 5.606,-33.142 16.828,-45.428c11.222,-12.287 25.276,-18.431 42.172,-18.431c10.201,0 19.41,2.276 27.636,6.816c8.225,4.542 14.966,10.903 20.21,19.092z" fill="#2D93FF"/>
     <path id="svg_21" d="m2134.784516,313.519491l50.968,122.959l-11.8,0l-17.192,-40.458l-47.08,0l-17.027,40.458l-12.185,0l51.637,-122.959l2.679,0zm-1.391,26.126l-18.721,44.505l37.372,0l-18.651,-44.505z" fill="#2D93FF"/>
     <path id="svg_22" d="m2202.768516,436.478491l0,-122.959l2.383,0l72.731,94.256l0,-94.256l10.78,0l0,122.959l-2.446,0l-72.155,-93.101l0,93.101l-11.293,0z" fill="#2D93FF"/>
     <path id="svg_23" d="m2359.911516,313.519491l50.979,122.959l-11.801,0l-17.192,-40.458l-47.085,0l-17.027,40.458l-12.188,0l51.646,-122.959l2.668,0zm-1.38,26.126l-18.726,44.505l37.366,0l-18.64,-44.505z" fill="#2D93FF"/>
     <path id="svg_24" d="m2469.952516,436.478491l0,-122.959l22.659,0c16.35,0 28.212,1.475 35.6,4.425c10.597,4.188 18.874,11.428 24.854,21.739c5.969,10.313 8.95,22.599 8.95,36.867c0,12.307 -2.366,23.15 -7.103,32.507c-4.727,9.362 -10.865,16.275 -18.419,20.739c-7.553,4.45 -18.139,6.682 -31.763,6.682l-34.778,0zm10.478,-11.62l12.633,0c15.105,0 25.589,-1.051 31.432,-3.167c8.22,-3.015 14.685,-8.427 19.398,-16.244c4.697,-7.83 7.046,-17.392 7.046,-28.691c0,-11.856 -2.542,-21.989 -7.645,-30.402c-5.107,-8.407 -12.216,-14.173 -21.331,-17.289c-6.835,-2.335 -18.099,-3.508 -33.804,-3.508l-7.729,0l0,99.301z" fill="#2D93FF"/>
     <path id="svg_25" d="m2583.266516,313.519491l62.642,0l0,12.037l-51.714,0l0,38.534l51.264,0l0,12.03l-51.264,0l0,48.321l51.264,0l0,12.036l-62.191,0l0,-122.958l-0.001,0z" fill="#2D93FF"/>
    </g>
    <g id="svg_39">
     <path id="svg_26" d="m1612.96155,496.508491l10.917,0l0,122.96l-10.917,0l0,-122.96z" fill="#2D93FF"/>
     <path id="svg_27" d="m1648.99355,619.468491l0,-122.96l2.375,0l72.751,94.256l0,-94.256l10.771,0l0,122.96l-2.457,0l-72.145,-93.102l0,93.102l-11.295,0z" fill="#2D93FF"/>
     <path id="svg_28" d="m1761.48955,496.508491l54.755,0l0,12.044l-43.836,0l0,38.528l43.836,0l0,12.036l-43.836,0l0,60.352l-10.919,0l0,-122.96z" fill="#2D93FF"/>
     <path id="svg_29" d="m1887.31755,493.418491c16.554,0 30.409,6.221 41.564,18.636c11.147,12.435 16.725,27.729 16.725,45.891c0,18 -5.561,33.275 -16.694,45.813c-11.127,12.537 -24.694,18.803 -40.701,18.803c-16.215,0 -29.893,-6.239 -41.041,-18.726c-11.156,-12.479 -16.733,-27.581 -16.733,-45.3c0,-11.813 2.54,-22.766 7.621,-32.847c5.082,-10.094 12.005,-17.988 20.787,-23.702c8.774,-5.714 18.257,-8.568 28.472,-8.568zm0.482,11.954c-8.086,0 -15.756,2.372 -22.993,7.111c-7.248,4.746 -12.906,11.126 -16.967,19.155c-4.07,8.029 -6.103,16.981 -6.103,26.856c0,14.608 4.498,26.947 13.499,37.016c9.009,10.067 19.863,15.096 32.563,15.096c8.485,0 16.34,-2.315 23.56,-6.939c7.211,-4.63 12.84,-10.966 16.887,-18.994c4.048,-8.029 6.065,-16.956 6.065,-26.768c0,-9.76 -2.018,-18.584 -6.065,-26.479c-4.047,-7.888 -9.733,-14.197 -17.081,-18.943c-7.336,-4.739 -15.125,-7.111 -23.365,-7.111z" fill="#2D93FF"/>
     <path id="svg_30" d="m1968.12655,496.508491l21.77,0c12.131,0 20.356,0.564 24.669,1.681c6.479,1.674 11.754,5.259 15.815,10.748c4.067,5.502 6.094,12.261 6.094,20.303c0,6.695 -1.396,12.575 -4.201,17.661c-2.796,5.072 -6.789,8.914 -11.99,11.504c-5.208,2.591 -12.382,3.919 -21.557,3.977l39.311,57.087l-13.508,0l-39.315,-57.087l-6.171,0l0,57.087l-10.917,0l0,-122.961zm10.917,12.044l0,41.792l18.826,0.173c7.302,0 12.686,-0.782 16.192,-2.347c3.495,-1.564 6.223,-4.053 8.184,-7.483c1.961,-3.425 2.936,-7.253 2.936,-11.492c0,-4.13 -0.989,-7.868 -2.965,-11.241c-1.992,-3.374 -4.594,-5.785 -7.821,-7.234c-3.224,-1.449 -8.587,-2.167 -16.081,-2.167l-19.271,0l0,-0.001z" fill="#2D93FF"/>
     <path id="svg_31" d="m2054.91055,619.468491l15.645,-122.96l1.775,0l44.436,100.894l44.007,-100.894l1.745,0l15.732,122.96l-10.717,0l-10.791,-87.933l-38.66,87.933l-2.781,0l-39.108,-88.6l-10.742,88.6l-10.541,0z" fill="#2D93FF"/>
     <path id="svg_32" d="m2244.37555,496.508491l50.968,122.96l-11.8,0l-17.187,-40.452l-47.086,0l-17.021,40.452l-12.193,0l51.641,-122.96l2.678,0zm-1.385,26.126l-18.727,44.505l37.361,0l-18.634,-44.505zm4.794,-61.562l15.979,0l-21.919,25.741l-10.249,0l16.189,-25.741z" fill="#2D93FF"/>
     <path id="svg_33" d="m2301.43655,508.552491l0,-12.044l59.889,0l0,12.044l-24.363,0l0,110.916l-11.15,0l0,-110.916l-24.376,0z" fill="#2D93FF"/>
     <path id="svg_34" d="m2375.51355,496.508491l10.928,0l0,122.96l-10.928,0l0,-122.96z" fill="#2D93FF"/>
     <path id="svg_35" d="m2513.27655,519.326491l-8.619,7.438c-4.76,-6.964 -10.466,-12.242 -17.124,-15.84c-6.664,-3.591 -13.983,-5.387 -21.964,-5.387c-8.716,0 -16.794,2.36 -24.222,7.067c-7.422,4.707 -13.185,11.03 -17.277,18.969c-4.082,7.939 -6.123,16.872 -6.123,26.793c0,14.993 4.561,27.498 13.704,37.534c9.138,10.023 20.67,15.045 34.591,15.045c15.305,0 28.108,-6.74 38.415,-20.232l8.619,7.361c-5.456,7.798 -12.251,13.826 -20.402,18.098c-8.146,4.258 -17.255,6.387 -27.305,6.387c-19.114,0 -34.197,-7.156 -45.25,-21.477c-9.264,-12.095 -13.893,-26.696 -13.893,-43.806c0,-17.994 5.609,-33.142 16.828,-45.429c11.224,-12.287 25.27,-18.431 42.172,-18.431c10.192,0 19.41,2.276 27.636,6.817c8.22,4.542 14.958,10.903 20.214,19.093z" fill="#2D93FF"/>
     <path id="svg_36" d="m2579.85155,496.508491l50.968,122.96l-11.795,0l-17.198,-40.452l-47.085,0l-17.021,40.452l-12.188,0l51.64,-122.96l2.679,0zm-1.385,26.126l-18.731,44.505l37.372,0l-18.641,-44.505z" fill="#2D93FF"/>
    </g>
   </g>
  </g>
 </g>
</svg>